<svg width="20" height="20" viewBox="0 0 20 20" fill="none" xmlns="http://www.w3.org/2000/svg">
<path d="M18.2053 10.5203L18.2005 10.5158C15.5444 7.96186 12.7908 6.66663 10.0229 6.66663C8.93146 6.66663 7.82574 6.87222 6.74142 7.27655L6.27535 7.4593L6.26822 7.46158C4.76301 8.1012 3.26018 9.1383 1.7954 10.5455C1.71455 10.6231 1.66699 10.7351 1.66699 10.847C1.66699 10.9566 1.71217 11.0663 1.79302 11.1463L1.79778 11.1508C4.45389 13.7047 7.20749 15 9.97536 15C11.0692 15 12.1725 14.7944 13.2569 14.39L13.7229 14.2073L13.7301 14.205C15.2353 13.5631 16.7405 12.526 18.2029 11.1211C18.2861 11.0412 18.3337 10.9315 18.3337 10.8173C18.3313 10.7099 18.2861 10.6003 18.2053 10.5203ZM9.97536 14.1456C7.56417 14.1456 5.13159 13.0377 2.74893 10.8493C4.07342 9.63172 5.42407 8.73854 6.76282 8.18801L7.25742 7.99841C8.18243 7.6786 9.11218 7.51641 10.0229 7.51641C12.4341 7.51641 14.8667 8.62432 17.2493 10.8127C15.9201 12.0326 14.5647 12.9303 13.2212 13.4786L12.7385 13.6636C11.823 13.9834 10.8932 14.1456 9.97536 14.1456Z" fill="#019DF4"/>
<path d="M12.2436 8.61524C11.7062 8.11725 10.9334 7.86597 9.94894 7.86597C8.94309 7.86597 8.16077 8.12867 7.62336 8.64493C7.08596 9.1612 6.8125 9.91503 6.8125 10.879C6.8125 11.8453 7.08596 12.5969 7.62336 13.1131C8.16077 13.6294 8.94309 13.8921 9.94894 13.8921C10.9548 13.8921 11.7371 13.6294 12.2745 13.1131C12.8119 12.5969 13.0854 11.8453 13.0854 10.879C13.0878 9.89448 12.8024 9.13378 12.2436 8.61524ZM9.94894 13.1337C9.17613 13.1337 8.58641 12.9532 8.20119 12.5969C7.8017 12.2291 7.59958 11.6511 7.59958 10.879C7.59958 10.1092 7.8017 9.53126 8.20119 9.1612C8.58641 8.80484 9.17375 8.62209 9.94894 8.62209C10.7218 8.62209 11.3091 8.80255 11.6967 9.1612C12.0962 9.53126 12.2983 10.1092 12.2983 10.879C12.2983 11.6489 12.0962 12.2268 11.6967 12.5946C11.3115 12.9532 10.7241 13.1337 9.94894 13.1337Z" fill="#019DF4"/>
<path d="M9.94918 12.0393C9.15972 12.0393 8.74121 11.6372 8.74121 10.8788C8.74121 10.1204 9.15972 9.71838 9.94918 9.71838C10.3344 9.71838 10.634 9.81433 10.8385 10.0039C11.0501 10.2004 11.1572 10.4951 11.1572 10.8788C11.1572 11.6372 10.741 12.0393 9.94918 12.0393Z" fill="#019DF4"/>
</svg>
