<svg width="20" height="20" viewBox="0 0 20 20" fill="none" xmlns="http://www.w3.org/2000/svg">
<path d="M14.0477 13.3809C15.4455 12.7061 16.8315 11.6842 18.1936 10.3202C18.2838 10.2299 18.3337 10.1087 18.3337 9.98273C18.3337 9.85678 18.2838 9.73559 18.1936 9.64766C15.5405 6.98613 12.7923 5.63873 10.0252 5.63873C8.97868 5.63873 7.93449 5.83121 6.89505 6.21619L2.4881 1.80564C2.303 1.62029 2.00398 1.62029 1.81887 1.80564C1.63377 1.991 1.63377 2.2928 1.81887 2.47816L5.95528 6.62017C4.55512 7.29506 3.1692 8.3169 1.80701 9.68093C1.71683 9.77123 1.66699 9.89243 1.66699 10.0184C1.66699 10.1443 1.71683 10.2655 1.80701 10.3534C4.46257 13.0126 7.21068 14.36 9.97778 14.36C11.0243 14.36 12.0685 14.1675 13.108 13.7825L17.5125 18.1931C17.6051 18.2858 17.7261 18.3333 17.8472 18.3333C17.9682 18.3333 18.0892 18.2858 18.1818 18.1931C18.3669 18.0077 18.3669 17.7059 18.1818 17.5206L14.0477 13.3809ZM10.0252 6.58928C12.415 6.58928 14.819 7.72993 17.1803 9.98273C15.9059 11.1994 14.6197 12.0953 13.3334 12.6657L12.5503 11.8815C12.8327 11.399 12.9774 10.7978 12.9774 10.0849C12.9774 8.10302 11.8478 6.96712 9.87811 6.96712C9.16616 6.96712 8.56338 7.11445 8.07926 7.40199L7.6426 6.96712C8.4376 6.71522 9.23261 6.58928 10.0252 6.58928ZM9.98015 8.82069C9.82827 8.82069 9.68588 8.84207 9.55773 8.88247L8.6061 7.92955C8.95258 7.7632 9.37737 7.68003 9.87811 7.68003C10.6375 7.68003 11.2261 7.87252 11.6271 8.25511C12.0495 8.65672 12.2631 9.2722 12.2631 10.0825C12.2631 10.5792 12.1824 11.0046 12.0211 11.3515L11.0979 10.4271C11.1359 10.3083 11.1596 10.1681 11.1596 10.0041C11.1596 9.28646 10.6968 8.82069 9.98015 8.82069V8.82069ZM9.97778 13.4095C7.58801 13.4095 5.18401 12.2688 2.82272 10.016C4.0971 8.80168 5.38098 7.90578 6.6696 7.33546L8.7912 9.45993L8.78883 9.46231L9.13531 9.80688C9.26583 9.93758 9.49366 10.1705 9.71436 10.3962C9.89472 10.5816 10.068 10.7574 10.1724 10.862L10.5117 11.2018L10.5212 11.1923L12.3604 13.034C11.563 13.2835 10.768 13.4095 9.97778 13.4095V13.4095Z" fill="#B6B7B7"/>
</svg>
